<?xml version="1.0" encoding="UTF-8"?>
<svg xmlns:inkscape="http://www.inkscape.org/namespaces/inkscape" viewBox="0 0 300 100" height="100pt" xmlns:xlink="http://www.w3.org/1999/xlink" width="300pt" version="1.1" xmlns="http://www.w3.org/2000/svg">
 <defs>
  <path d="M1.95 10.06 C1.86333 10.06 1.795 10.0433 1.745 10.01 C1.695 9.97667 1.67 9.93667 1.67 9.89 C1.67 9.83 1.7 9.78167 1.76 9.745 C1.82 9.70833 1.88667 9.68333 1.96 9.67 C2.21333 9.61667 2.38667 9.52667 2.48 9.4 C2.57333 9.27333 2.62 9.10667 2.62 8.9 L2.62 7.54 C2.62 7.28667 2.58833 7.08333 2.525 6.93 C2.46167 6.77667 2.38333 6.62333 2.29 6.47 L0.98 4.46 C0.92 4.36667 0.856667 4.27833 0.79 4.195 C0.723333 4.11167 0.645 4.03667 0.555 3.97 C0.465 3.90333 0.353333 3.85333 0.22 3.82 C0.16 3.8 0.108333 3.77667 0.065 3.75 C0.0216667 3.72333 0 3.67667 0 3.61 C0 3.55667 0.02 3.51833 0.06 3.495 C0.1 3.47167 0.143333 3.46 0.19 3.46 C0.503333 3.46 0.793333 3.47 1.06 3.49 C1.32667 3.51 1.61 3.52 1.91 3.52 C2.14333 3.52 2.365 3.50833 2.575 3.485 C2.785 3.46167 3.01333 3.45 3.26 3.45 C3.31333 3.45 3.37167 3.46333 3.435 3.49 C3.49833 3.51667 3.53 3.55333 3.53 3.6 C3.53 3.66 3.49833 3.70833 3.435 3.745 C3.37167 3.78167 3.31 3.80667 3.25 3.82 C3.05 3.86667 2.90667 3.91667 2.82 3.97 C2.73333 4.02333 2.69 4.10667 2.69 4.22 C2.69 4.32667 2.72667 4.44333 2.8 4.57 L3.85 6.36 C3.89667 6.44667 3.95 6.49 4.01 6.49 C4.03667 6.49 4.06167 6.47833 4.085 6.455 C4.10833 6.43167 4.13333 6.4 4.16 6.36 C4.32 6.07333 4.47333 5.78833 4.62 5.505 C4.76667 5.22167 4.91 4.92667 5.05 4.62 C5.07667 4.56667 5.1 4.505 5.12 4.435 C5.14 4.365 5.15 4.3 5.15 4.24 C5.15 4.10667 5.09 4.005 4.97 3.935 C4.85 3.865 4.72 3.82667 4.58 3.82 C4.51333 3.81333 4.44667 3.79 4.38 3.75 C4.31333 3.71 4.28 3.66 4.28 3.6 C4.28 3.55333 4.31167 3.51833 4.375 3.495 C4.43833 3.47167 4.50333 3.46 4.57 3.46 C4.77 3.46 4.95333 3.46833 5.12 3.485 C5.28667 3.50167 5.46333 3.51 5.65 3.51 C5.81667 3.51 5.97667 3.49667 6.13 3.47 C6.28333 3.44333 6.46 3.43 6.66 3.43 C6.73333 3.43 6.80167 3.44167 6.865 3.465 C6.92833 3.48833 6.96 3.53333 6.96 3.6 C6.96 3.66667 6.93167 3.71167 6.875 3.735 C6.81833 3.75833 6.76 3.78 6.7 3.8 C6.5 3.85333 6.32667 3.93667 6.18 4.05 C6.03333 4.16333 5.92 4.29 5.84 4.43 C5.74 4.59667 5.63667 4.765 5.53 4.935 C5.42333 5.105 5.31833 5.27333 5.215 5.44 C5.11167 5.60667 5.00833 5.77333 4.905 5.94 C4.80167 6.10667 4.7 6.27667 4.6 6.45 C4.55333 6.53667 4.50833 6.63 4.465 6.73 C4.42167 6.83 4.38667 6.93833 4.36 7.055 C4.33333 7.17167 4.32 7.3 4.32 7.44 L4.32 8.89 C4.32 9.14333 4.365 9.31833 4.455 9.415 C4.545 9.51167 4.72 9.59667 4.98 9.67 C5.05333 9.69 5.12 9.71333 5.18 9.74 C5.24 9.76667 5.27 9.81333 5.27 9.88 C5.27 9.92667 5.245 9.96667 5.195 10 C5.145 10.0333 5.08333 10.05 5.01 10.05 C4.87 10.05 4.70333 10.0433 4.51 10.03 C4.31667 10.0167 4.125 10.0033 3.935 9.99 C3.745 9.97667 3.58333 9.97 3.45 9.97 C3.31667 9.97 3.16167 9.97667 2.985 9.99 C2.80833 10.0033 2.62833 10.0183 2.445 10.035 C2.26167 10.0517 2.09667 10.06 1.95 10.06 Z" id="GlEBGaramond-ExtraBold121"/>
  <path d="M4.04 10.14 C3.51333 10.14 3.02 10.0617 2.56 9.905 C2.1 9.74833 1.69667 9.525 1.35 9.235 C1.00333 8.945 0.733333 8.59833 0.54 8.195 C0.346667 7.79167 0.25 7.34333 0.25 6.85 C0.25 6.39667 0.34 5.96167 0.52 5.545 C0.7 5.12833 0.965 4.75667 1.315 4.43 C1.665 4.10333 2.09333 3.84333 2.6 3.65 C3.10667 3.45667 3.68333 3.36 4.33 3.36 C4.53667 3.36 4.75167 3.37667 4.975 3.41 C5.19833 3.44333 5.415 3.48667 5.625 3.54 C5.835 3.59333 6.01667 3.65333 6.17 3.72 C6.22333 3.74667 6.27167 3.78 6.315 3.82 C6.35833 3.86 6.38333 3.91667 6.39 3.99 C6.42333 4.23 6.445 4.455 6.455 4.665 C6.465 4.875 6.47 5.05333 6.47 5.2 C6.47 5.28 6.44167 5.33333 6.385 5.36 C6.32833 5.38667 6.26833 5.38667 6.205 5.36 C6.14167 5.33333 6.09667 5.28 6.07 5.2 C6.02333 5.06667 5.97167 4.92667 5.915 4.78 C5.85833 4.63333 5.77333 4.50667 5.66 4.4 C5.52667 4.26 5.34333 4.14333 5.11 4.05 C4.87667 3.95667 4.58667 3.91 4.24 3.91 C3.90667 3.91 3.60667 3.98167 3.34 4.125 C3.07333 4.26833 2.84667 4.465 2.66 4.715 C2.47333 4.965 2.33 5.24833 2.23 5.565 C2.13 5.88167 2.08 6.21333 2.08 6.56 C2.08 7.00667 2.12333 7.415 2.21 7.785 C2.29667 8.155 2.43 8.47333 2.61 8.74 C2.79 9.00667 3.015 9.21167 3.285 9.355 C3.555 9.49833 3.87333 9.57 4.24 9.57 C4.74 9.57 5.14167 9.46667 5.445 9.26 C5.74833 9.05333 6.00333 8.72667 6.21 8.28 C6.26333 8.16 6.34 8.10333 6.44 8.11 C6.54 8.11667 6.59 8.17333 6.59 8.28 C6.59 8.37333 6.58167 8.48167 6.565 8.605 C6.54833 8.72833 6.525 8.86167 6.495 9.005 C6.465 9.14833 6.42667 9.3 6.38 9.46 C6.36 9.53333 6.32667 9.59333 6.28 9.64 C6.23333 9.68667 6.18 9.72667 6.12 9.76 C5.86667 9.87333 5.56667 9.965 5.22 10.035 C4.87333 10.105 4.48 10.14 4.04 10.14 Z" id="GlEBGaramond-ExtraBold16"/>
  <path d="M0.35 10.05 C0.29 10.05 0.243333 10.0333 0.21 10 C0.176667 9.96667 0.16 9.93 0.16 9.89 C0.16 9.79 0.226667 9.72 0.36 9.68 C0.58 9.61333 0.735 9.54333 0.825 9.47 C0.915 9.39667 0.96 9.25667 0.96 9.05 L0.96 4.49 C0.96 4.27667 0.918333 4.125 0.835 4.035 C0.751667 3.945 0.593333 3.87333 0.36 3.82 C0.28 3.8 0.225 3.77 0.195 3.73 C0.165 3.69 0.15 3.65 0.15 3.61 C0.15 3.56333 0.168333 3.525 0.205 3.495 C0.241667 3.465 0.29 3.45 0.35 3.45 C0.57 3.45 0.753333 3.45667 0.9 3.47 C1.04667 3.48333 1.18667 3.49667 1.32 3.51 C1.45333 3.52333 1.60667 3.53 1.78 3.53 C1.94 3.53 2.08667 3.52167 2.22 3.505 C2.35333 3.48833 2.50167 3.47167 2.665 3.455 C2.82833 3.43833 3.03 3.43 3.27 3.43 C4.06333 3.43 4.66833 3.54167 5.085 3.765 C5.50167 3.98833 5.71 4.37333 5.71 4.92 C5.71 5.12 5.66167 5.31333 5.565 5.5 C5.46833 5.68667 5.33667 5.84667 5.17 5.98 C5.06333 6.06667 4.94833 6.14167 4.825 6.205 C4.70167 6.26833 4.57 6.31667 4.43 6.35 C4.40333 6.35667 4.39 6.37333 4.39 6.4 C4.39 6.42667 4.40333 6.44333 4.43 6.45 C4.61 6.48333 4.795 6.53167 4.985 6.595 C5.175 6.65833 5.35333 6.75 5.52 6.87 C5.68667 6.99 5.82 7.145 5.92 7.335 C6.02 7.525 6.07 7.76667 6.07 8.06 C6.07 8.43333 6.01167 8.73 5.895 8.95 C5.77833 9.17 5.63667 9.33667 5.47 9.45 C5.30333 9.56333 5.15 9.65667 5.01 9.73 C4.79 9.83667 4.54 9.915 4.26 9.965 C3.98 10.015 3.64667 10.04 3.26 10.04 C3.00667 10.04 2.76333 10.0333 2.53 10.02 C2.29667 10.0067 2.05 10 1.79 10 C1.65667 10 1.50167 10.0033 1.325 10.01 C1.14833 10.0167 0.975 10.025 0.805 10.035 C0.635 10.045 0.483333 10.05 0.35 10.05 L0.35 10.05 Z M3.23 9.46 C3.41667 9.46 3.58833 9.40167 3.745 9.285 C3.90167 9.16833 4.02667 9.01 4.12 8.81 C4.21333 8.61 4.26 8.38667 4.26 8.14 C4.26 7.91333 4.235 7.72667 4.185 7.58 C4.135 7.43333 4.075 7.315 4.005 7.225 C3.935 7.135 3.87 7.06667 3.81 7.02 C3.76333 6.97333 3.67833 6.925 3.555 6.875 C3.43167 6.825 3.28 6.8 3.1 6.8 C3.01333 6.8 2.91833 6.825 2.815 6.875 C2.71167 6.925 2.66 7.00667 2.66 7.12 L2.66 8.84 C2.66 9.04 2.71 9.19333 2.81 9.3 C2.91 9.40667 3.05 9.46 3.23 9.46 L3.23 9.46 Z M3.05 6.32 C3.20333 6.32 3.34 6.30167 3.46 6.265 C3.58 6.22833 3.7 6.15667 3.82 6.05 C3.86667 6.00333 3.92667 5.90833 4 5.765 C4.07333 5.62167 4.11 5.41667 4.11 5.15 C4.11 4.85 4.075 4.60833 4.005 4.425 C3.935 4.24167 3.83 4.10833 3.69 4.025 C3.55 3.94167 3.37667 3.9 3.17 3.9 C3.00333 3.9 2.87667 3.935 2.79 4.005 C2.70333 4.075 2.66 4.18 2.66 4.32 L2.66 5.97 C2.66 6.09 2.705 6.17833 2.795 6.235 C2.885 6.29167 2.97 6.32 3.05 6.32 Z" id="GlEBGaramond-ExtraBold15"/>
  <path d="M6.47 10.21 C6.09667 10.21 5.785 10.1633 5.535 10.07 C5.285 9.97667 5.07667 9.855 4.91 9.705 C4.74333 9.555 4.59333 9.39 4.46 9.21 C4.32 9.01667 4.18333 8.82167 4.05 8.625 C3.91667 8.42833 3.78667 8.21833 3.66 7.995 C3.53333 7.77167 3.40667 7.52333 3.28 7.25 C3.21333 7.10333 3.13333 7.00333 3.04 6.95 C3 6.92333 2.95833 6.905 2.915 6.895 C2.87167 6.885 2.83333 6.88 2.8 6.88 C2.76667 6.88 2.74167 6.89833 2.725 6.935 C2.70833 6.97167 2.7 7.02 2.7 7.08 L2.7 9.02 C2.7 9.22667 2.75833 9.37 2.875 9.45 C2.99167 9.53 3.19333 9.6 3.48 9.66 C3.54 9.67333 3.58667 9.695 3.62 9.725 C3.65333 9.755 3.67 9.80333 3.67 9.87 C3.67 9.91667 3.65667 9.95333 3.63 9.98 C3.60333 10.0067 3.56333 10.02 3.51 10.02 C3.37 10.02 3.19333 10.0167 2.98 10.01 C2.76667 10.0033 2.555 9.99667 2.345 9.99 C2.135 9.98333 1.96333 9.98 1.83 9.98 C1.69667 9.98 1.54167 9.98333 1.365 9.99 C1.18833 9.99667 1.00833 10.005 0.825 10.015 C0.641667 10.025 0.476667 10.03 0.33 10.03 C0.29 10.03 0.25 10.0167 0.21 9.99 C0.17 9.96333 0.15 9.92667 0.15 9.88 C0.15 9.76667 0.213333 9.69333 0.34 9.66 C0.593333 9.60667 0.766667 9.54 0.86 9.46 C0.953333 9.38 1 9.23667 1 9.03 L1 4.49 C1 4.34333 0.983333 4.22833 0.95 4.145 C0.916667 4.06167 0.856667 3.995 0.77 3.945 C0.683333 3.895 0.56 3.85333 0.4 3.82 C0.32 3.8 0.265 3.77 0.235 3.73 C0.205 3.69 0.19 3.65 0.19 3.61 C0.19 3.56333 0.208333 3.525 0.245 3.495 C0.281667 3.465 0.33 3.45 0.39 3.45 C0.61 3.45 0.793333 3.45667 0.94 3.47 C1.08667 3.48333 1.22667 3.49667 1.36 3.51 C1.49333 3.52333 1.64667 3.53 1.82 3.53 C1.98 3.53 2.12167 3.52167 2.245 3.505 C2.36833 3.48833 2.50667 3.47167 2.66 3.455 C2.81333 3.43833 3.01333 3.43 3.26 3.43 C4.04667 3.43 4.655 3.56167 5.085 3.825 C5.515 4.08833 5.73 4.49 5.73 5.03 C5.73 5.33 5.66333 5.58167 5.53 5.785 C5.39667 5.98833 5.23 6.15167 5.03 6.275 C4.83 6.39833 4.62667 6.49 4.42 6.55 C4.39333 6.55667 4.38167 6.57333 4.385 6.6 C4.38833 6.62667 4.39667 6.65 4.41 6.67 C4.61 6.96333 4.805 7.24667 4.995 7.52 C5.185 7.79333 5.37667 8.045 5.57 8.275 C5.76333 8.505 5.95667 8.71333 6.15 8.9 C6.38333 9.12 6.625 9.25 6.875 9.29 C7.125 9.33 7.36667 9.35 7.6 9.35 C7.7 9.35 7.75 9.41333 7.75 9.54 C7.75 9.7 7.69833 9.82833 7.595 9.925 C7.49167 10.0217 7.34333 10.0933 7.15 10.14 C6.95667 10.1867 6.73 10.21 6.47 10.21 L6.47 10.21 Z M3.05 6.54 C3.29 6.54 3.48667 6.48667 3.64 6.38 C3.79333 6.27333 3.90833 6.125 3.985 5.935 C4.06167 5.745 4.1 5.52333 4.1 5.27 C4.1 4.95 4.06 4.69 3.98 4.49 C3.9 4.29 3.785 4.14167 3.635 4.045 C3.485 3.94833 3.30333 3.9 3.09 3.9 C2.95667 3.9 2.85833 3.95667 2.795 4.07 C2.73167 4.18333 2.7 4.43333 2.7 4.82 C2.7 4.96667 2.7 5.15167 2.7 5.375 C2.7 5.59833 2.7 5.86 2.7 6.16 C2.7 6.29333 2.73167 6.39 2.795 6.45 C2.85833 6.51 2.94333 6.54 3.05 6.54 Z" id="GlEBGaramond-ExtraBold88"/>
 </defs>
 <g inkscape:label="Background" id="Background" inkscape:groupmode="layer">
  <g transform="translate(10, 10)">
   <use xlink:href="#GlEBGaramond-ExtraBold121" style="fill:#009ee3;stroke:none;" transform="matrix(6 0 0 6 52.625 1.02)"/>
   <use xlink:href="#GlEBGaramond-ExtraBold16" style="fill:#009ee3;stroke:none;" transform="matrix(6 0 0 6 93.825 1.02)"/>
   <use xlink:href="#GlEBGaramond-ExtraBold15" style="fill:#009ee3;stroke:none;" transform="matrix(6 0 0 6 139.325 1.02)"/>
   <use xlink:href="#GlEBGaramond-ExtraBold88" style="fill:#009ee3;stroke:none;" transform="matrix(6 0 0 6 180.425 1.02)"/>
   <path d="M0 0 L280 0 L280 80 L0 80 L0 0 Z" style="fill:none; stroke:none;"/>
  </g>
 </g>
</svg>
